<svg width="972" height="225" viewBox="0 0 972 225" fill="none" xmlns="http://www.w3.org/2000/svg">
<path d="M0 55.2861C0 24.9105 24.6243 0.286133 55 0.286133H177C207.376 0.286133 232 24.9105 232 55.2861C232 85.6618 207.376 110.286 177 110.286H55C24.6243 110.286 0 85.6618 0 55.2861Z" fill="#3ABDB0" fill-opacity="0.15"/>
<path d="M81.2168 47.6299C84.6758 47.6299 87.1895 45.3418 87.1895 42.1299C87.1895 39.2188 85.1377 37.0811 82.1406 37.0811C80.0459 37.0811 78.5205 38.1338 77.9189 39.5732H77.8545C77.8438 36.1787 78.9609 33.998 81.2168 33.998C82.4951 33.998 83.4189 34.6426 83.7842 35.749H86.9854C86.5557 33.1924 84.2354 31.4307 81.2275 31.4307C77.1992 31.4307 74.75 34.5244 74.75 39.6592C74.75 45.0088 77.5107 47.6299 81.2168 47.6299ZM81.1738 45.0518C79.584 45.0518 78.3379 43.8057 78.3379 42.2051C78.3379 40.626 79.5625 39.4766 81.2061 39.4766C82.8281 39.4766 84.0312 40.6367 84.0312 42.2695C84.0205 43.8271 82.7637 45.0518 81.1738 45.0518ZM96.417 42.3555V39.6162H89.3594V42.3555H96.417ZM107.686 36.6943H107.782L110.726 47.2861H113.787L117.901 31.7852H114.539L112.09 43.0107H112.004L109.104 31.7852H106.364L103.464 43.0107H103.378L100.939 31.7852H97.5771L101.681 47.2861H104.742L107.686 36.6943ZM129.922 44.6006H122.896V40.6904H129.524V38.1982H122.896V34.46H129.922V31.7852H119.652V47.2861H129.922V44.6006ZM142.533 44.6006H135.508V40.6904H142.136V38.1982H135.508V34.46H142.533V31.7852H132.264V47.2861H142.533V44.6006ZM148.119 47.2861V42.5488L149.569 40.8086L154.167 47.2861H158.045L151.911 38.6602L157.647 31.7852H154.038L148.216 38.8535H148.119V31.7852H144.875V47.2861H148.119ZM63.0195 63.7852V79.2861H66.2637V74.3984H69.1641C72.4297 74.3984 74.6963 72.2715 74.6963 69.0918C74.6963 65.9014 72.5049 63.7852 69.3252 63.7852H63.0195ZM66.2637 66.3525H68.4658C70.3242 66.3525 71.3984 67.3408 71.3984 69.1025C71.3984 70.875 70.3135 71.8633 68.4551 71.8633H66.2637V66.3525ZM79.8633 66.3203H82.624C84.2354 66.3203 85.2451 67.2871 85.2451 68.791C85.2451 70.3271 84.2891 71.2617 82.6562 71.2617H79.8633V66.3203ZM79.8633 73.6143H82.4629L85.3525 79.2861H89.0264L85.7607 73.1309C87.5439 72.4326 88.5752 70.7139 88.5752 68.7266C88.5752 65.665 86.5342 63.7852 82.9678 63.7852H76.6191V79.2861H79.8633V73.6143ZM97.7061 63.5166C93.1084 63.5166 90.2295 66.5996 90.2295 71.541C90.2295 76.4717 93.1084 79.5547 97.7061 79.5547C102.293 79.5547 105.183 76.4717 105.183 71.541C105.183 66.5996 102.293 63.5166 97.7061 63.5166ZM97.7061 66.2236C100.241 66.2236 101.863 68.2861 101.863 71.541C101.863 74.7852 100.241 76.8369 97.7061 76.8369C95.1602 76.8369 93.5381 74.7852 93.5381 71.541C93.5381 68.2861 95.1709 66.2236 97.7061 66.2236ZM121.135 72.7764V71.0254H114.604V73.3887H117.977L117.966 73.6357C117.901 75.5586 116.43 76.8584 114.313 76.8584C111.735 76.8584 110.103 74.8066 110.103 71.4443C110.103 68.1465 111.639 66.2021 114.195 66.2021C115.946 66.2021 117.268 67.1689 117.74 68.791H120.995C120.533 65.6543 117.805 63.5166 114.185 63.5166C109.63 63.5166 106.794 66.5244 106.794 71.4873C106.794 76.5254 109.63 79.5547 114.26 79.5547C118.578 79.5547 121.135 76.998 121.135 72.7764ZM126.527 66.3203H129.288C130.899 66.3203 131.909 67.2871 131.909 68.791C131.909 70.3271 130.953 71.2617 129.32 71.2617H126.527V66.3203ZM126.527 73.6143H129.127L132.017 79.2861H135.69L132.425 73.1309C134.208 72.4326 135.239 70.7139 135.239 68.7266C135.239 65.665 133.198 63.7852 129.632 63.7852H123.283V79.2861H126.527V73.6143ZM147.528 79.2861H150.977L145.584 63.7852H141.771L136.389 79.2861H139.719L140.9 75.5264H146.347L147.528 79.2861ZM143.586 66.75H143.661L145.648 73.0986H141.599L143.586 66.75ZM168.98 79.2861V63.7852H165.221L160.816 74.9141H160.73L156.326 63.7852H152.566V79.2861H155.456V68.8232H155.542L159.753 79.2861H161.794L166.005 68.8232H166.091V79.2861H168.98Z" fill="#3ABDB0"/>
<path d="M55 1.28613H177V-0.713867H55V1.28613ZM177 109.286H55V111.286H177V109.286ZM55 109.286C25.1766 109.286 1 85.1095 1 55.2861H-1C-1 86.2141 24.0721 111.286 55 111.286V109.286ZM231 55.2861C231 85.1095 206.823 109.286 177 109.286V111.286C207.928 111.286 233 86.2141 233 55.2861H231ZM177 1.28613C206.823 1.28613 231 25.4628 231 55.2861H233C233 24.3582 207.928 -0.713867 177 -0.713867V1.28613ZM55 -0.713867C24.0721 -0.713867 -1 24.3582 -1 55.2861H1C1 25.4628 25.1766 1.28613 55 1.28613V-0.713867Z" fill="#3ABDB0"/>
<path d="M272 55.2861C272 40.9267 283.641 29.2861 298 29.2861H402C416.359 29.2861 428 40.9267 428 55.2861C428 69.6455 416.359 81.2861 402 81.2861H298C283.641 81.2861 272 69.6455 272 55.2861Z" fill="#3ABDB0" fill-opacity="0.15"/>
<path d="M303.422 47.5273C299.028 47.5273 296.278 50.6211 296.278 55.541C296.278 60.4609 299.028 63.5439 303.422 63.5439C307.815 63.5439 310.565 60.4609 310.565 55.541C310.565 50.6211 307.815 47.5273 303.422 47.5273ZM303.422 49.3105C306.591 49.3105 308.578 51.7168 308.578 55.541C308.578 59.3545 306.591 61.7607 303.422 61.7607C300.253 61.7607 298.266 59.3545 298.266 55.541C298.266 51.7168 300.253 49.3105 303.422 49.3105ZM312.682 63.2861H314.551V56.7119C314.551 54.8213 315.7 53.5752 317.462 53.5752C319.181 53.5752 320.029 54.5635 320.029 56.3682V63.2861H321.898V56.0352C321.898 53.5 320.48 51.9209 318.031 51.9209C316.302 51.9209 315.109 52.6943 314.486 53.8975H314.443V52.1143H312.682V63.2861ZM329.837 63.4795C332.694 63.4795 334.585 61.2129 334.585 57.7002C334.585 54.1982 332.684 51.9209 329.869 51.9209C328.29 51.9209 326.99 52.7051 326.292 53.9834H326.249V47.7852H324.38V63.2861H326.163V61.3955H326.206C326.926 62.6846 328.204 63.4795 329.837 63.4795ZM329.472 53.5645C331.448 53.5645 332.673 55.165 332.673 57.7002C332.673 60.2568 331.448 61.8359 329.472 61.8359C327.581 61.8359 326.238 60.1924 326.238 57.7002C326.238 55.2188 327.581 53.5645 329.472 53.5645ZM341.116 63.4795C344.199 63.4795 346.283 61.2559 346.283 57.7002C346.283 54.1338 344.199 51.9209 341.116 51.9209C338.022 51.9209 335.938 54.1338 335.938 57.7002C335.938 61.2559 338.022 63.4795 341.116 63.4795ZM341.116 61.8359C339.14 61.8359 337.84 60.332 337.84 57.7002C337.84 55.0684 339.14 53.5645 341.116 53.5645C343.093 53.5645 344.382 55.0684 344.382 57.7002C344.382 60.332 343.093 61.8359 341.116 61.8359ZM351.858 61.8896C350.516 61.8896 349.624 61.1914 349.624 60.1279C349.624 59.0752 350.483 58.4092 351.987 58.3125L354.974 58.1299V59.043C354.974 60.6543 353.62 61.8896 351.858 61.8896ZM351.439 63.4795C352.943 63.4795 354.361 62.6416 355.027 61.3633H355.07V63.2861H356.843V55.5625C356.843 53.3389 355.188 51.9209 352.567 51.9209C349.925 51.9209 348.271 53.4033 348.142 55.3369H349.946C350.183 54.2412 351.085 53.5645 352.524 53.5645C354.071 53.5645 354.974 54.3809 354.974 55.7451V56.6797L351.772 56.8623C349.194 57.0127 347.723 58.2158 347.723 60.1279C347.723 62.1367 349.216 63.4795 351.439 63.4795ZM359.217 63.2861H361.086V56.3252C361.086 54.7461 362.031 53.7041 363.481 53.7041C363.933 53.7041 364.33 53.7578 364.48 53.8115V51.9961C364.33 51.9746 364.051 51.9209 363.729 51.9209C362.418 51.9209 361.387 52.7051 361.021 53.9404H360.979V52.1143H359.217V63.2861ZM369.701 63.4795C371.312 63.4795 372.591 62.6846 373.311 61.3955H373.343V63.2861H375.126V47.7852H373.257V53.9297H373.214C372.548 52.7051 371.259 51.9209 369.658 51.9209C366.844 51.9209 364.921 54.1982 364.921 57.7002C364.921 61.2021 366.854 63.4795 369.701 63.4795ZM370.056 53.5645C371.979 53.5645 373.268 55.208 373.268 57.7002C373.268 60.2031 371.979 61.8359 370.056 61.8359C368.079 61.8359 366.833 60.2354 366.833 57.7002C366.833 55.1758 368.079 53.5645 370.056 53.5645ZM377.747 63.2861H379.616V52.1143H377.747V63.2861ZM378.682 50.127C379.337 50.127 379.853 49.6006 379.853 48.9561C379.853 48.3008 379.337 47.7852 378.682 47.7852C378.037 47.7852 377.511 48.3008 377.511 48.9561C377.511 49.6006 378.037 50.127 378.682 50.127ZM382.141 63.2861H384.01V56.7119C384.01 54.8213 385.159 53.5752 386.921 53.5752C388.64 53.5752 389.488 54.5635 389.488 56.3682V63.2861H391.357V56.0352C391.357 53.5 389.939 51.9209 387.49 51.9209C385.761 51.9209 384.568 52.6943 383.945 53.8975H383.902V52.1143H382.141V63.2861ZM398.286 61.7285C396.363 61.7285 395.106 60.1602 395.106 57.6572C395.106 55.1543 396.363 53.5645 398.286 53.5645C400.23 53.5645 401.53 55.1973 401.53 57.6572C401.53 60.1172 400.23 61.7285 398.286 61.7285ZM398.351 67.4971C401.434 67.4971 403.399 65.7246 403.399 63.0605V52.1143H401.616V53.9941H401.584C400.843 52.6943 399.532 51.9209 397.953 51.9209C395.063 51.9209 393.194 54.1553 393.194 57.6572C393.194 61.127 395.063 63.3721 397.91 63.3721C399.479 63.3721 400.8 62.5771 401.487 61.3633H401.53V63.125C401.53 64.79 400.359 65.9072 398.426 65.9072C397.029 65.9072 395.923 65.2305 395.558 64.21H393.635C393.946 66.1113 395.891 67.4971 398.351 67.4971Z" fill="#3ABDB0"/>
<path d="M298 30.2861H402V28.2861H298V30.2861ZM402 80.2861H298V82.2861H402V80.2861ZM298 80.2861C284.193 80.2861 273 69.0933 273 55.2861H271C271 70.1978 283.088 82.2861 298 82.2861V80.2861ZM427 55.2861C427 69.0933 415.807 80.2861 402 80.2861V82.2861C416.912 82.2861 429 70.1978 429 55.2861H427ZM402 30.2861C415.807 30.2861 427 41.479 427 55.2861H429C429 40.3744 416.912 28.2861 402 28.2861V30.2861ZM298 28.2861C283.088 28.2861 271 40.3744 271 55.2861H273C273 41.479 284.193 30.2861 298 30.2861V28.2861Z" fill="#3ABDB0"/>
<path d="M328.587 122.922C329.422 122.922 330.178 122.791 330.855 122.527L332.033 124.144H333.808L332.129 121.833C333.597 120.725 334.432 118.827 334.432 116.375C334.432 112.349 332.182 109.818 328.587 109.818C324.993 109.818 322.743 112.349 322.743 116.375C322.743 120.4 324.993 122.922 328.587 122.922ZM328.587 121.463C325.995 121.463 324.369 119.495 324.369 116.375C324.369 113.246 325.995 111.277 328.587 111.277C331.18 111.277 332.806 113.246 332.806 116.375C332.806 118.238 332.226 119.697 331.207 120.558L330.125 119.082H328.35L329.932 121.261C329.519 121.393 329.071 121.463 328.587 121.463ZM343.669 113.571H342.14V118.941C342.14 120.497 341.244 121.516 339.758 121.516C338.343 121.516 337.649 120.716 337.649 119.231V113.571H336.12V119.503C336.12 121.578 337.289 122.87 339.284 122.87C340.69 122.87 341.639 122.281 342.184 121.226H342.219V122.711H343.669V113.571ZM349.321 114.74C350.762 114.74 351.72 115.83 351.755 117.359H346.79C346.886 115.838 347.888 114.74 349.321 114.74ZM351.72 120.092C351.465 120.954 350.613 121.542 349.453 121.542C347.809 121.542 346.781 120.391 346.781 118.642V118.554H353.337V117.974C353.337 115.206 351.817 113.413 349.347 113.413C346.825 113.413 345.208 115.337 345.208 118.176C345.208 121.05 346.798 122.87 349.417 122.87C351.413 122.87 352.959 121.692 353.223 120.092H351.72ZM354.726 116.093C354.726 117.412 355.561 118.211 357.284 118.625L358.734 118.976C359.78 119.231 360.14 119.609 360.14 120.268C360.14 121.094 359.375 121.622 358.136 121.622C356.897 121.622 356.194 121.121 356.009 120.075H354.48C354.656 121.789 355.992 122.87 358.136 122.87C360.175 122.87 361.678 121.745 361.678 120.154C361.678 118.844 361.01 118.124 359.165 117.675L357.714 117.324C356.695 117.078 356.229 116.647 356.229 116.014C356.229 115.214 356.967 114.661 358.083 114.661C359.208 114.661 359.912 115.25 360.026 116.208H361.485C361.423 114.59 360.087 113.413 358.083 113.413C356.106 113.413 354.726 114.529 354.726 116.093ZM363.761 111.365V113.571H362.399V114.828H363.761V120.338C363.761 122.096 364.412 122.782 366.09 122.782C366.451 122.782 366.873 122.755 367.057 122.711V121.428C366.952 121.446 366.6 121.472 366.424 121.472C365.642 121.472 365.291 121.094 365.291 120.259V114.828H367.066V113.571H365.291V111.365H363.761ZM368.78 122.711H370.309V113.571H368.78V122.711ZM369.544 111.945C370.081 111.945 370.502 111.514 370.502 110.987C370.502 110.451 370.081 110.029 369.544 110.029C369.017 110.029 368.586 110.451 368.586 110.987C368.586 111.514 369.017 111.945 369.544 111.945ZM376.163 122.87C378.685 122.87 380.39 121.05 380.39 118.141C380.39 115.223 378.685 113.413 376.163 113.413C373.631 113.413 371.926 115.223 371.926 118.141C371.926 121.05 373.631 122.87 376.163 122.87ZM376.163 121.525C374.545 121.525 373.482 120.294 373.482 118.141C373.482 115.988 374.545 114.757 376.163 114.757C377.78 114.757 378.834 115.988 378.834 118.141C378.834 120.294 377.78 121.525 376.163 121.525ZM381.937 122.711H383.466V117.333C383.466 115.786 384.407 114.766 385.848 114.766C387.254 114.766 387.949 115.575 387.949 117.051V122.711H389.478V116.779C389.478 114.705 388.318 113.413 386.314 113.413C384.899 113.413 383.923 114.045 383.414 115.03H383.378V113.571H381.937V122.711ZM391.429 122.711H392.958V117.333C392.958 115.786 393.899 114.766 395.34 114.766C396.747 114.766 397.441 115.575 397.441 117.051V122.711H398.97V116.779C398.97 114.705 397.81 113.413 395.806 113.413C394.391 113.413 393.416 114.045 392.906 115.03H392.871V113.571H391.429V122.711ZM403.936 121.569C402.837 121.569 402.108 120.998 402.108 120.127C402.108 119.266 402.811 118.721 404.042 118.642L406.485 118.493V119.24C406.485 120.558 405.377 121.569 403.936 121.569ZM403.593 122.87C404.824 122.87 405.984 122.184 406.529 121.138H406.564V122.711H408.014V116.392C408.014 114.573 406.661 113.413 404.516 113.413C402.354 113.413 401 114.625 400.895 116.208H402.372C402.565 115.311 403.303 114.757 404.481 114.757C405.747 114.757 406.485 115.425 406.485 116.542V117.306L403.866 117.456C401.756 117.579 400.552 118.563 400.552 120.127C400.552 121.771 401.774 122.87 403.593 122.87ZM410.036 122.711H411.565V113.571H410.036V122.711ZM410.8 111.945C411.336 111.945 411.758 111.514 411.758 110.987C411.758 110.451 411.336 110.029 410.8 110.029C410.273 110.029 409.842 110.451 409.842 110.987C409.842 111.514 410.273 111.945 410.8 111.945ZM413.63 122.711H415.16V117.016C415.16 115.724 415.933 114.872 417.12 114.872C417.489 114.872 417.814 114.916 417.937 114.959V113.474C417.814 113.457 417.585 113.413 417.322 113.413C416.25 113.413 415.406 114.054 415.107 115.065H415.072V113.571H413.63V122.711ZM422.411 114.74C423.852 114.74 424.81 115.83 424.845 117.359H419.879C419.976 115.838 420.978 114.74 422.411 114.74ZM424.81 120.092C424.555 120.954 423.703 121.542 422.542 121.542C420.899 121.542 419.871 120.391 419.871 118.642V118.554H426.427V117.974C426.427 115.206 424.907 113.413 422.437 113.413C419.915 113.413 418.297 115.337 418.297 118.176C418.297 121.05 419.888 122.87 422.507 122.87C424.502 122.87 426.049 121.692 426.313 120.092H424.81Z" fill="#3ABDB0"/>
<path d="M333.36 168.438V155.755H331.778V161.239H324.817V155.755H323.235V168.438H324.817V162.663H331.778V168.438H333.36ZM339.372 168.596C341.894 168.596 343.599 166.776 343.599 163.867C343.599 160.949 341.894 159.139 339.372 159.139C336.84 159.139 335.135 160.949 335.135 163.867C335.135 166.776 336.84 168.596 339.372 168.596ZM339.372 167.251C337.754 167.251 336.691 166.021 336.691 163.867C336.691 161.714 337.754 160.483 339.372 160.483C340.989 160.483 342.043 161.714 342.043 163.867C342.043 166.021 340.989 167.251 339.372 167.251ZM356.774 159.297H355.262L353.434 166.732H353.399L351.325 159.297H349.848L347.783 166.732H347.748L345.919 159.297H344.399L346.957 168.438H348.512L350.569 161.362H350.604L352.669 168.438H354.225L356.774 159.297ZM362.214 157.091V159.297H360.852V160.554H362.214V166.064C362.214 167.822 362.865 168.508 364.543 168.508C364.904 168.508 365.326 168.481 365.51 168.438V167.154C365.405 167.172 365.053 167.198 364.877 167.198C364.095 167.198 363.744 166.82 363.744 165.985V160.554H365.519V159.297H363.744V157.091H362.214ZM370.678 168.596C373.201 168.596 374.906 166.776 374.906 163.867C374.906 160.949 373.201 159.139 370.678 159.139C368.147 159.139 366.442 160.949 366.442 163.867C366.442 166.776 368.147 168.596 370.678 168.596ZM370.678 167.251C369.061 167.251 367.998 166.021 367.998 163.867C367.998 161.714 369.061 160.483 370.678 160.483C372.295 160.483 373.35 161.714 373.35 163.867C373.35 166.021 372.295 167.251 370.678 167.251ZM380.223 168.438H381.752V155.755H380.223V168.438ZM387.606 168.596C390.128 168.596 391.833 166.776 391.833 163.867C391.833 160.949 390.128 159.139 387.606 159.139C385.075 159.139 383.37 160.949 383.37 163.867C383.37 166.776 385.075 168.596 387.606 168.596ZM387.606 167.251C385.989 167.251 384.925 166.021 384.925 163.867C384.925 161.714 385.989 160.483 387.606 160.483C389.223 160.483 390.278 161.714 390.278 163.867C390.278 166.021 389.223 167.251 387.606 167.251ZM397.098 167.163C395.525 167.163 394.497 165.88 394.497 163.832C394.497 161.784 395.525 160.483 397.098 160.483C398.689 160.483 399.752 161.819 399.752 163.832C399.752 165.845 398.689 167.163 397.098 167.163ZM397.151 171.883C399.673 171.883 401.282 170.433 401.282 168.253V159.297H399.823V160.835H399.796C399.19 159.771 398.118 159.139 396.826 159.139C394.461 159.139 392.932 160.967 392.932 163.832C392.932 166.671 394.461 168.508 396.791 168.508C398.074 168.508 399.155 167.857 399.717 166.864H399.752V168.306C399.752 169.668 398.794 170.582 397.212 170.582C396.07 170.582 395.165 170.028 394.866 169.193H393.292C393.547 170.749 395.138 171.883 397.151 171.883ZM406.968 168.438H408.498V162.707C408.498 161.441 409.376 160.492 410.589 160.492C411.723 160.492 412.461 161.213 412.461 162.312V168.438H413.991V162.628C413.991 161.389 414.843 160.492 416.056 160.492C417.26 160.492 417.955 161.23 417.955 162.479V168.438H419.484V162.127C419.484 160.316 418.315 159.139 416.504 159.139C415.221 159.139 414.149 159.789 413.639 160.879H413.604C413.208 159.771 412.286 159.139 411.038 159.139C409.807 159.139 408.875 159.789 408.445 160.756H408.41V159.297H406.968V168.438ZM425.1 160.466C426.542 160.466 427.5 161.556 427.535 163.085H422.569C422.666 161.564 423.667 160.466 425.1 160.466ZM427.5 165.818C427.245 166.68 426.392 167.269 425.232 167.269C423.588 167.269 422.56 166.117 422.56 164.368V164.28H429.117V163.7C429.117 160.932 427.596 159.139 425.126 159.139C422.604 159.139 420.987 161.063 420.987 163.902C420.987 166.776 422.578 168.596 425.197 168.596C427.192 168.596 428.739 167.418 429.002 165.818H427.5ZM433.678 167.295C432.58 167.295 431.85 166.724 431.85 165.854C431.85 164.992 432.553 164.447 433.784 164.368L436.227 164.219V164.966C436.227 166.284 435.12 167.295 433.678 167.295ZM433.335 168.596C434.566 168.596 435.726 167.91 436.271 166.864H436.306V168.438H437.756V162.118C437.756 160.299 436.403 159.139 434.258 159.139C432.096 159.139 430.743 160.352 430.637 161.934H432.114C432.307 161.037 433.045 160.483 434.223 160.483C435.489 160.483 436.227 161.151 436.227 162.268V163.032L433.608 163.182C431.499 163.305 430.294 164.289 430.294 165.854C430.294 167.497 431.516 168.596 433.335 168.596ZM439.778 168.438H441.307V155.755H439.778V168.438ZM443.214 161.819C443.214 163.138 444.049 163.938 445.772 164.351L447.222 164.702C448.268 164.957 448.628 165.335 448.628 165.994C448.628 166.82 447.864 167.348 446.625 167.348C445.385 167.348 444.682 166.847 444.498 165.801H442.968C443.144 167.515 444.48 168.596 446.625 168.596C448.664 168.596 450.167 167.471 450.167 165.88C450.167 164.57 449.499 163.85 447.653 163.401L446.203 163.05C445.183 162.804 444.717 162.373 444.717 161.74C444.717 160.94 445.456 160.387 446.572 160.387C447.697 160.387 448.4 160.976 448.514 161.934H449.973C449.912 160.316 448.576 159.139 446.572 159.139C444.594 159.139 443.214 160.255 443.214 161.819Z" fill="#3ABDB0"/>
<path d="M468 55.2861C468 40.9267 479.641 29.2861 494 29.2861H651C665.359 29.2861 677 40.9267 677 55.2861C677 69.6455 665.359 81.2861 651 81.2861H494C479.641 81.2861 468 69.6455 468 55.2861Z" fill="#3ABDB0" fill-opacity="0.15"/>
<path d="M501.193 50.9863H501.301L504.878 63.2861H506.704L510.926 47.7852H508.906L505.802 60.4395H505.716L502.225 47.7852H500.27L496.778 60.4395H496.692L493.588 47.7852H491.568L495.79 63.2861H497.616L501.193 50.9863ZM515.921 53.543C517.683 53.543 518.854 54.875 518.896 56.7441H512.827C512.945 54.8857 514.17 53.543 515.921 53.543ZM518.854 60.085C518.542 61.1377 517.5 61.8574 516.082 61.8574C514.073 61.8574 512.816 60.4502 512.816 58.3125V58.2051H520.83V57.4961C520.83 54.1123 518.972 51.9209 515.953 51.9209C512.87 51.9209 510.894 54.2734 510.894 57.7432C510.894 61.2559 512.838 63.4795 516.039 63.4795C518.478 63.4795 520.368 62.04 520.69 60.085H518.854ZM527.2 53.543C528.962 53.543 530.133 54.875 530.176 56.7441H524.106C524.225 54.8857 525.449 53.543 527.2 53.543ZM530.133 60.085C529.821 61.1377 528.779 61.8574 527.361 61.8574C525.353 61.8574 524.096 60.4502 524.096 58.3125V58.2051H532.109V57.4961C532.109 54.1123 530.251 51.9209 527.232 51.9209C524.149 51.9209 522.173 54.2734 522.173 57.7432C522.173 61.2559 524.117 63.4795 527.318 63.4795C529.757 63.4795 531.647 62.04 531.97 60.085H530.133ZM535.966 57.0771V47.7852H534.097V63.2861H535.966V59.0752L537.008 58.0869L541.154 63.2861H543.324L538.329 56.9375L543.174 52.1143H540.907L535.966 57.0771ZM553.186 63.2861H555.055V47.7852H553.164L549.039 50.75V52.6943L553.143 49.8369H553.186V63.2861ZM570.48 57.8721V56.1318H563.434V57.8721H570.48ZM583.543 63.2861C586.841 63.2861 588.796 61.6641 588.796 58.9355C588.796 56.873 587.442 55.3906 585.337 55.1221V55.0361C586.83 54.7676 588.012 53.2637 588.012 51.6523C588.012 49.332 586.218 47.7852 583.564 47.7852H577.688V63.2861H583.543ZM579.622 49.4932H583.124C585.004 49.4932 586.057 50.3418 586.057 51.8779C586.057 53.5537 584.811 54.4668 582.522 54.4668H579.622V49.4932ZM579.622 61.5781V56.1318H583.07C585.541 56.1318 586.809 57.0449 586.809 58.8389C586.809 60.6328 585.584 61.5781 583.253 61.5781H579.622ZM594.382 61.8896C593.039 61.8896 592.147 61.1914 592.147 60.1279C592.147 59.0752 593.007 58.4092 594.511 58.3125L597.497 58.1299V59.043C597.497 60.6543 596.144 61.8896 594.382 61.8896ZM593.963 63.4795C595.467 63.4795 596.885 62.6416 597.551 61.3633H597.594V63.2861H599.366V55.5625C599.366 53.3389 597.712 51.9209 595.091 51.9209C592.448 51.9209 590.794 53.4033 590.665 55.3369H592.47C592.706 54.2412 593.608 53.5645 595.048 53.5645C596.595 53.5645 597.497 54.3809 597.497 55.7451V56.6797L594.296 56.8623C591.718 57.0127 590.246 58.2158 590.246 60.1279C590.246 62.1367 591.739 63.4795 593.963 63.4795ZM601.547 55.1973C601.547 56.8086 602.567 57.7861 604.673 58.291L606.445 58.7207C607.724 59.0322 608.164 59.4941 608.164 60.2998C608.164 61.3096 607.229 61.9541 605.715 61.9541C604.2 61.9541 603.341 61.3418 603.115 60.0635H601.246C601.461 62.1582 603.094 63.4795 605.715 63.4795C608.207 63.4795 610.044 62.1045 610.044 60.1602C610.044 58.5596 609.228 57.6787 606.972 57.1309L605.199 56.7012C603.953 56.4004 603.384 55.874 603.384 55.1006C603.384 54.123 604.286 53.4463 605.65 53.4463C607.025 53.4463 607.885 54.166 608.024 55.3369H609.808C609.732 53.3604 608.1 51.9209 605.65 51.9209C603.233 51.9209 601.547 53.2852 601.547 55.1973ZM616.468 53.543C618.229 53.543 619.4 54.875 619.443 56.7441H613.374C613.492 54.8857 614.717 53.543 616.468 53.543ZM619.4 60.085C619.089 61.1377 618.047 61.8574 616.629 61.8574C614.62 61.8574 613.363 60.4502 613.363 58.3125V58.2051H621.377V57.4961C621.377 54.1123 619.519 51.9209 616.5 51.9209C613.417 51.9209 611.44 54.2734 611.44 57.7432C611.44 61.2559 613.385 63.4795 616.586 63.4795C619.024 63.4795 620.915 62.04 621.237 60.085H619.4ZM623.364 63.2861H625.233V47.7852H623.364V63.2861ZM627.854 63.2861H629.724V52.1143H627.854V63.2861ZM628.789 50.127C629.444 50.127 629.96 49.6006 629.96 48.9561C629.96 48.3008 629.444 47.7852 628.789 47.7852C628.145 47.7852 627.618 48.3008 627.618 48.9561C627.618 49.6006 628.145 50.127 628.789 50.127ZM632.248 63.2861H634.117V56.7119C634.117 54.8213 635.267 53.5752 637.028 53.5752C638.747 53.5752 639.596 54.5635 639.596 56.3682V63.2861H641.465V56.0352C641.465 53.5 640.047 51.9209 637.598 51.9209C635.868 51.9209 634.676 52.6943 634.053 53.8975H634.01V52.1143H632.248V63.2861ZM648.329 53.543C650.091 53.543 651.262 54.875 651.305 56.7441H645.235C645.354 54.8857 646.578 53.543 648.329 53.543ZM651.262 60.085C650.95 61.1377 649.908 61.8574 648.49 61.8574C646.481 61.8574 645.225 60.4502 645.225 58.3125V58.2051H653.238V57.4961C653.238 54.1123 651.38 51.9209 648.361 51.9209C645.278 51.9209 643.302 54.2734 643.302 57.7432C643.302 61.2559 645.246 63.4795 648.447 63.4795C650.886 63.4795 652.776 62.04 653.099 60.085H651.262Z" fill="#3ABDB0"/>
<path d="M494 30.2861H651V28.2861H494V30.2861ZM651 80.2861H494V82.2861H651V80.2861ZM494 80.2861C480.193 80.2861 469 69.0933 469 55.2861H467C467 70.1978 479.088 82.2861 494 82.2861V80.2861ZM676 55.2861C676 69.0933 664.807 80.2861 651 80.2861V82.2861C665.912 82.2861 678 70.1978 678 55.2861H676ZM651 30.2861C664.807 30.2861 676 41.479 676 55.2861H678C678 40.3744 665.912 28.2861 651 28.2861V30.2861ZM494 28.2861C479.088 28.2861 467 40.3744 467 55.2861H469C469 41.479 480.193 30.2861 494 30.2861V28.2861Z" fill="#3ABDB0"/>
<path d="M717.524 55.2861C717.524 40.9267 729.165 29.2861 743.524 29.2861H878.524C892.883 29.2861 904.524 40.9267 904.524 55.2861C904.524 69.6455 892.883 81.2861 878.524 81.2861H743.524C729.165 81.2861 717.524 69.6455 717.524 55.2861Z" fill="#3ABDB0" fill-opacity="0.15"/>
<path d="M750.911 50.9863H751.018L754.595 63.2861H756.422L760.643 47.7852H758.624L755.519 60.4395H755.433L751.942 47.7852H749.987L746.496 60.4395H746.41L743.305 47.7852H741.286L745.507 63.2861H747.334L750.911 50.9863ZM765.638 53.543C767.4 53.543 768.571 54.875 768.614 56.7441H762.545C762.663 54.8857 763.887 53.543 765.638 53.543ZM768.571 60.085C768.259 61.1377 767.217 61.8574 765.799 61.8574C763.791 61.8574 762.534 60.4502 762.534 58.3125V58.2051H770.547V57.4961C770.547 54.1123 768.689 51.9209 765.671 51.9209C762.588 51.9209 760.611 54.2734 760.611 57.7432C760.611 61.2559 762.555 63.4795 765.756 63.4795C768.195 63.4795 770.086 62.04 770.408 60.085H768.571ZM776.918 53.543C778.679 53.543 779.85 54.875 779.893 56.7441H773.824C773.942 54.8857 775.167 53.543 776.918 53.543ZM779.85 60.085C779.539 61.1377 778.497 61.8574 777.079 61.8574C775.07 61.8574 773.813 60.4502 773.813 58.3125V58.2051H781.827V57.4961C781.827 54.1123 779.968 51.9209 776.95 51.9209C773.867 51.9209 771.89 54.2734 771.89 57.7432C771.89 61.2559 773.835 63.4795 777.036 63.4795C779.474 63.4795 781.365 62.04 781.687 60.085H779.85ZM785.683 57.0771V47.7852H783.814V63.2861H785.683V59.0752L786.725 58.0869L790.872 63.2861H793.042L788.047 56.9375L792.891 52.1143H790.625L785.683 57.0771ZM798.853 52.2646H800.722C800.722 50.5244 802.162 49.2139 804.074 49.2139C805.846 49.2139 806.985 50.4277 806.985 51.9531C806.985 53.2422 806.502 54.0801 804.407 56.2607L798.95 61.9541V63.2861H809.176V61.5674H801.603V61.5244L805.288 57.7432C808.134 54.8213 808.919 53.543 808.919 51.835C808.919 49.4824 806.942 47.5273 804.074 47.5273C801.088 47.5273 798.853 49.5469 798.853 52.2646ZM822.905 57.8721V56.1318H815.858V57.8721H822.905ZM832.047 49.5039H835.667C837.665 49.5039 838.868 50.6104 838.868 52.4688C838.868 54.3701 837.74 55.4443 835.753 55.4443H832.047V49.5039ZM832.047 57.1523H835.753L839.072 63.2861H841.339L837.751 56.8516C839.695 56.2393 840.866 54.5635 840.866 52.4043C840.866 49.6113 838.911 47.7852 835.924 47.7852H830.113V63.2861H832.047V57.1523ZM847.494 53.543C849.255 53.543 850.426 54.875 850.469 56.7441H844.4C844.518 54.8857 845.743 53.543 847.494 53.543ZM850.426 60.085C850.115 61.1377 849.073 61.8574 847.655 61.8574C845.646 61.8574 844.389 60.4502 844.389 58.3125V58.2051H852.403V57.4961C852.403 54.1123 850.545 51.9209 847.526 51.9209C844.443 51.9209 842.466 54.2734 842.466 57.7432C842.466 61.2559 844.411 63.4795 847.612 63.4795C850.05 63.4795 851.941 62.04 852.263 60.085H850.426ZM854.1 55.1973C854.1 56.8086 855.121 57.7861 857.226 58.291L858.999 58.7207C860.277 59.0322 860.717 59.4941 860.717 60.2998C860.717 61.3096 859.783 61.9541 858.268 61.9541C856.754 61.9541 855.894 61.3418 855.669 60.0635H853.799C854.014 62.1582 855.647 63.4795 858.268 63.4795C860.76 63.4795 862.597 62.1045 862.597 60.1602C862.597 58.5596 861.781 57.6787 859.525 57.1309L857.753 56.7012C856.506 56.4004 855.937 55.874 855.937 55.1006C855.937 54.123 856.839 53.4463 858.204 53.4463C859.579 53.4463 860.438 54.166 860.578 55.3369H862.361C862.286 53.3604 860.653 51.9209 858.204 51.9209C855.787 51.9209 854.1 53.2852 854.1 55.1973ZM869.021 53.543C870.783 53.543 871.954 54.875 871.997 56.7441H865.927C866.046 54.8857 867.27 53.543 869.021 53.543ZM871.954 60.085C871.642 61.1377 870.6 61.8574 869.182 61.8574C867.173 61.8574 865.917 60.4502 865.917 58.3125V58.2051H873.93V57.4961C873.93 54.1123 872.072 51.9209 869.053 51.9209C865.97 51.9209 863.994 54.2734 863.994 57.7432C863.994 61.2559 865.938 63.4795 869.139 63.4795C871.578 63.4795 873.468 62.04 873.791 60.085H871.954ZM876.422 49.418V52.1143H874.757V53.6504H876.422V60.3857C876.422 62.5342 877.217 63.3721 879.269 63.3721C879.71 63.3721 880.225 63.3398 880.451 63.2861V61.7178C880.322 61.7393 879.892 61.7715 879.677 61.7715C878.721 61.7715 878.292 61.3096 878.292 60.2891V53.6504H880.462V52.1143H878.292V49.418H876.422Z" fill="#3ABDB0"/>
<path d="M743.524 30.2861H878.524V28.2861H743.524V30.2861ZM878.524 80.2861H743.524V82.2861H878.524V80.2861ZM743.524 80.2861C729.717 80.2861 718.524 69.0933 718.524 55.2861H716.524C716.524 70.1978 728.612 82.2861 743.524 82.2861V80.2861ZM903.524 55.2861C903.524 69.0933 892.331 80.2861 878.524 80.2861V82.2861C893.436 82.2861 905.524 70.1978 905.524 55.2861H903.524ZM878.524 30.2861C892.331 30.2861 903.524 41.479 903.524 55.2861H905.524C905.524 40.3744 893.436 28.2861 878.524 28.2861V30.2861ZM743.524 28.2861C728.612 28.2861 716.524 40.3744 716.524 55.2861H718.524C718.524 41.479 729.717 30.2861 743.524 30.2861V28.2861Z" fill="#3ABDB0"/>
<line x1="231.476" y1="54.7861" x2="272" y2="54.7861" stroke="#3ABDB0"/>
<path d="M314.004 122.712H303C298.582 122.712 295 119.13 295 114.712V80.9854" stroke="#3ABDB0"/>
<line x1="428" y1="54.7861" x2="468.524" y2="54.7861" stroke="#3ABDB0"/>
<path d="M314.004 168.438H303C298.582 168.438 295 164.856 295 160.438V113.258" stroke="#3ABDB0"/>
<line x1="677" y1="54.7861" x2="717.524" y2="54.7861" stroke="#3ABDB0"/>
<line x1="904.524" y1="54.7861" x2="945.048" y2="54.7861" stroke="#3ABDB0"/>
<line x1="295.016" y1="157.128" x2="295.016" y2="197.652" stroke="#3ABDB0"/>
<line x1="948.912" y1="54.7861" x2="953.911" y2="54.7861" stroke="#3ABDB0"/>
<line x1="957.775" y1="54.7861" x2="962.774" y2="54.7861" stroke="#3ABDB0"/>
<line x1="966.638" y1="54.7861" x2="971.638" y2="54.7861" stroke="#3ABDB0"/>
<line x1="295.016" y1="201.516" x2="295.016" y2="206.515" stroke="#3ABDB0"/>
<line x1="295.016" y1="210.379" x2="295.016" y2="215.379" stroke="#3ABDB0"/>
<line x1="295.016" y1="219.242" x2="295.016" y2="224.242" stroke="#3ABDB0"/>
</svg>
